<svg xmlns="http://www.w3.org/2000/svg" width="812.67" height="371.83" viewBox="0 0 812.67 371.83">
  <defs>
    <style>
      .cls-1, .cls-2 {
        fill: #fff;
      }

      .cls-2 {
        font-size: 29px;
        stroke: #fff;
        stroke-miterlimit: 10;
        font-family: Arial-BoldMT, Arial;
        font-weight: 700;
        letter-spacing: 0.15em;
      }
    </style>
  </defs>
  <g id="Layer_2" data-name="Layer 2">
    <g id="Layer_1-2" data-name="Layer 1">
      <g id="Layer_2-2" data-name="Layer 2">
        <g id="Layer_1-2-2" data-name="Layer 1-2">
          <path class="cls-1" d="M277.61,78.34c-1.84-2.39-3.48-4.68-5.28-6.84-2.54-3-5.18-6-7.81-8.92a55.94,55.94,0,0,0-4.74-5c-2.59-2.42-5.31-4.71-8-7-2.13-1.83-4.28-3.64-6.46-5.4-1.07-.87-2.25-1.6-3.38-2.39-1.77-1.24-3.52-2.5-5.31-3.69-1.09-.72-2.22-1.39-3.38-2-3-1.56-5.91-3.15-8.93-4.59-2.51-1.2-5.12-2.17-7.66-3.28-3.62-1.57-7.16-3.34-10.86-4.71-2.61-1-5.44-1.35-8.14-2.11-1.92-.54-3.76-1.38-5.69-1.89a41.37,41.37,0,0,0-5.08-.83c-3.62-.45-7.38-.4-10.83-1.41-4.1-1.19-8.16-.7-12.22-.85-4.91-.18-9.84-.09-14.75.13-3.41.16-6.82.65-10.21,1.14-3.08.45-6.15,1-9.17,1.7-2.16.5-4.23,1.33-6.35,2-.34.1-.73,0-1.06.13l-8.5,2.75a24.45,24.45,0,0,0-2.53.74c-2.29,1-4.54,2.07-6.81,3.11l-.16.08c-2.72,1.17-5.5,2.23-8.17,3.53-2.46,1.2-4.78,2.69-7.2,4-1.4.75-2.93,1.27-4.27,2.11-2.15,1.34-4.2,2.82-6.25,4.29C76.19,44.7,74,46.31,71.84,48c-1.36,1.06-2.63,2.25-3.93,3.4-2.54,2.24-5.16,4.41-7.57,6.79-2.59,2.56-5,5.27-7.45,8-2.12,2.42-4.12,5-6.14,7.47-1.25,1.55-2.47,3.11-3.63,4.72-.79,1.09-1.46,2.27-2.15,3.43-1.13,1.86-2.22,3.74-3.35,5.59-.78,1.29-1.65,2.52-2.41,3.81-1,1.78-2.05,3.59-3,5.41-.3.56-.38,1.23-.63,1.82-1.47,3.44-3,6.85-4.41,10.31-.69,1.69-1.13,3.48-1.8,5.18-.55,1.4-1.38,2.7-1.89,4.11a26,26,0,0,0-.56,3.15c-.47,2-1.07,4-1.49,6.08-.69,3.44-.9,7-2,10.31-.93,2.72-.41,5.44-1,8.06-1.89,8.47-.74,17-.79,25.51a71.76,71.76,0,0,0,1.11,10.56c.45,3.19,1,6.37,1.75,9.51.43,1.89,1.21,3.7,1.8,5.55a8.66,8.66,0,0,1,.24,1.41,26.72,26.72,0,0,0,2.67,8.51,27.55,27.55,0,0,1,.94,3.18c.54,1.4,1.24,2.73,1.81,4.12.38.91.57,1.9,1,2.79,1.69,3.66,3.39,7.32,5.19,10.92,1.5,3,3.1,6,4.77,8.9a38.76,38.76,0,0,0,2.67,3.68c.82,1.11,1.7,2.2,2.48,3.35,1.22,1.8,2.27,3.72,3.57,5.46a61.52,61.52,0,0,0,4.36,5c3,3.26,6,6.55,9.2,9.67,1.92,1.89,4.17,3.45,6.2,5.24,1.48,1.31,2.75,2.87,4.29,4.12,1.85,1.51,3.86,2.82,5.82,4.2,2.25,1.57,4.48,3.16,6.78,4.66,1.28.83,2.68,1.49,4,2.22l5.57,3c1.65.9,3.28,1.85,5,2.67,2.67,1.3,5.36,2.57,8.09,3.73,1.86.78,3.8,1.36,5.72,2,2.67.87,5.32,1.78,8,2.55,2.16.61,4.37,1,6.56,1.56,1.46.34,2.9.79,4.37,1.05,1.87.34,4,.11,5.61.9,2,1,3.94.68,5.91.89a3.72,3.72,0,0,0,.67-.08V178c-.55,0-1.18-.1-1.8-.1H82.56c-2.18,0-2.37-.18-2.37-2.34V160.82h81.24v160.1h-1.72c-2.88,0-5.76-.09-8.64,0-5.08.13-10-1-15-1.67-2.95-.37-5.93-.68-8.84-1.31-3.2-.7-6.33-1.74-9.5-2.63-2.25-.62-4.52-1.17-6.74-1.89-1.67-.53-3.27-1.27-4.9-1.92l-.33-.13c-3.61-1.27-7.31-2.36-10.82-3.88-3-1.31-5.82-3.12-8.74-4.69a21,21,0,0,0-2.75-1.31,28.27,28.27,0,0,1-7.21-4.38c-.79-.59-1.76-.94-2.62-1.46-1.66-1-3.33-2-5-3.1s-3.57-2.31-5.25-3.61-3.37-2.79-5-4.26c-2.16-2-4.27-4-6.41-6-2.52-2.36-5.17-4.61-7.55-7.11-2.84-3-5.51-6.14-8.14-9.32s-5.23-6.35-7.55-9.73-4.08-7.07-6.36-10.45a56.39,56.39,0,0,1-5.66-10.34c-.92-2.26-1.92-4.49-2.93-6.72-1.14-2.49-2.49-4.89-3.44-7.45-1.27-3.43-2.2-7-3.35-10.46-.48-1.45-1.17-2.83-1.69-4.27a15.09,15.09,0,0,1-.42-1.91c-.55-2.24-1.11-4.49-1.67-6.73V194c-.4-2.61-.89-5.21-1.19-7.83-.37-3.32-.3-6.72-.91-10C-.7,166.61.16,157,.55,147.41a118,118,0,0,1,1.63-15c.62-3.64,1.72-7.21,2.59-10.81.45-1.89.75-3.83,1.33-5.69.76-2.43,1.79-4.78,2.59-7.21.75-2.23,1.33-4.52,2-6.76a18,18,0,0,1,1.09-2.51c1.6-3.17,3.26-6.31,4.83-9.5.7-1.43,1.16-3,1.91-4.4,1.15-2.14,2.48-4.19,3.7-6.3s2.48-4.52,3.85-6.71,2.83-4.25,4.33-6.31c1.15-1.57,2.39-3.06,3.63-4.55q3.42-4.09,6.89-8.15c2.21-2.5,4.35-5,6.61-7.5a48.11,48.11,0,0,1,3.68-3.15c2-1.7,3.89-3.48,5.93-5.11,2.44-2,5.22-3.56,7.39-5.77,1.63-1.65,3.6-2.66,5.35-4a67.77,67.77,0,0,1,5.92-3.81c2.85-1.78,5.67-3.62,8.58-5.31a46.9,46.9,0,0,1,4.47-2c2.65-1.27,5.24-2.66,7.93-3.85,1.76-.79,3.66-1.26,5.45-2,2.14-.86,4.2-1.92,6.35-2.76a33,33,0,0,1,3.42-.9c1.73-.47,3.44-1,5.17-1.47,3.13-.89,6.26-1.76,9.39-2.64l.17-.06c2.5-.41,5-.89,7.51-1.21,2.83-.35,5.72-.34,8.52-.85C153.46-.88,164.22.4,175,.4a81.66,81.66,0,0,1,13.76,1.72c3.52.62,7,1.73,10.43,2.58,1.91.48,3.87.79,5.75,1.34q4.63,1.35,9.19,2.89,3.78,1.31,7.46,2.86c1.64.69,3.16,1.64,4.78,2.38,2.53,1.16,5.17,2.08,7.61,3.39,2.68,1.42,5.16,3.22,7.78,4.76,2.09,1.24,4.39,2.14,6.35,3.54,2.69,1.92,5.56,3.58,7.94,6,2,2,4.53,3.34,6.72,5.12,2,1.65,3.9,3.49,5.83,5.24,2.21,2,4.46,4,6.61,6,1.41,1.35,2.72,2.81,4,4.26,1.73,1.92,3.48,3.84,5.1,5.85s3.31,4.25,4.81,6.47c1,1.46.42,2.88-.86,4-3,2.75-6,5.63-9,8.42A10.44,10.44,0,0,1,277.61,78.34Z"/>
          <path class="cls-1" d="M192.24,184.46v92c0,2.07.34,4.15.32,6.22,0,.5-.78,1.26-1.35,1.43-2.51.77-5.06,1.45-7.64,2a33.64,33.64,0,0,1-3.75.3,15.53,15.53,0,0,0-2.24.43,1.93,1.93,0,0,1-2.49-1.12,2,2,0,0,1-.11-.88V40.66a27.75,27.75,0,0,1,.53-2.89,2.75,2.75,0,0,0-.37-1.24c-.72-1.7,0-2.84,1.8-2.6,3.54.46,7.06,1.13,10.6,1.68.82.13,1.67.1,2.5.22A2.21,2.21,0,0,1,192.25,38a1.55,1.55,0,0,1,0,.22v97.18a5.65,5.65,0,0,0,.6,1.7,8.64,8.64,0,0,0,1.54-1c2.05-1.93,4.08-3.88,6.07-5.86,1.26-1.25,2.43-2.6,3.68-3.87,1.73-1.76,3.52-3.47,5.25-5.23,1.33-1.36,2.58-2.8,3.93-4.15,1.88-1.89,3.85-3.71,5.73-5.6,1.25-1.26,2.39-2.61,3.63-3.87,1.43-1.48,2.94-2.89,4.37-4.37,1.93-2,3.78-4,5.73-6,2.18-2.2,4.45-4.3,6.63-6.5,1.67-1.69,3.23-3.49,4.88-5.21,1.41-1.48,2.84-2.93,4.29-4.37,1.77-1.75,3.68-3.36,5.29-5.23,1-1.23,2-1.09,2.75-.15,2.12,2.56,4.09,5.24,6.09,7.89a32.75,32.75,0,0,1,2.57,3.64,1.93,1.93,0,0,1-.19,1.79c-3.14,3.32-6.39,6.54-9.56,9.83s-6,6.46-9.1,9.6c-3.8,3.85-7.69,7.6-11.53,11.4q-4.42,4.38-8.83,8.78c-3.24,3.25-6.49,6.5-9.69,9.78s-6.16,6.49-9.3,9.67c-2.57,2.59-5.43,4.92-7.78,7.68-1.27,1.48-2.7,2.68-4.06,4a2.5,2.5,0,0,0,0,2.4c1.66,1.75,3.6,3.22,5.36,4.88,1.28,1.21,2.42,2.56,3.64,3.83,1.64,1.71,3.29,3.43,5,5.12l5.23,5.16c1.38,1.36,2.77,2.7,4.14,4.06s2.64,2.63,3.94,4c1.66,1.7,3.29,3.44,5,5.14s3.58,3.53,5.38,5.28c2.24,2.18,4.51,4.32,6.73,6.51,2,2,3.89,4,5.86,6,2.2,2.2,4.46,4.34,6.66,6.53s4.46,4.54,6.71,6.79c2,2,3.93,4.05,6,5.93,1.05.95.78,1.69.13,2.57-1.32,1.81-2.6,3.65-4,5.39a60.37,60.37,0,0,1-5.37,6.14c-1.12,1.06-1.92-.65-2.58-1.24-1.86-1.66-3.45-3.63-5.2-5.43-2.12-2.18-4.31-4.31-6.47-6.47l-6-6.07c-2.26-2.29-4.5-4.59-6.79-6.86-2.57-2.55-5.19-5.05-7.76-7.59-1.63-1.62-3.2-3.3-4.83-4.92s-3.36-3.18-5-4.81c-2.21-2.22-4.33-4.53-6.56-6.73-1.68-1.66-3.5-3.18-5.18-4.84s-2.94-3.23-4.51-4.75A11.9,11.9,0,0,0,192.24,184.46Z"/>
          <path class="cls-1" d="M736.35,176.93c0,2.87.06,5.44,0,8,0,1.27-.85,1.69-2.16,1.68-11.88-.05-23.76,0-35.64,0-1.52,0-3.13-.17-4.25,1.21a3.36,3.36,0,0,0-.93,1.62c-.11,2.25,0,4.51,0,7H727V206H693.31c0,4-.19,7.92.09,11.76a3.14,3.14,0,0,0,3.22,2.74c2.27.06,4.55.07,6.83.07h30.6c2.23,0,2.29,0,2.3,2.34s0,4.66,0,7.11a12.88,12.88,0,0,1-1.5.21H696.52c-2.09,0-3.72-1.19-5.54-1.94a12,12,0,0,1-5.18-4.71,5.54,5.54,0,0,1-.78-1.46c-.62-2-1.61-3.92-1.58-6.22.14-8.51-.1-17,.15-25.55a12.66,12.66,0,0,1,3.6-8.37,15.5,15.5,0,0,1,12.2-5c11.57.09,23.15,0,34.73,0Z"/>
          <path class="cls-1" d="M542.62,191.23h-9c-1.09-1.51-2-2.91-3.12-4.23-.23-.29-.86-.35-1.31-.35H505.81a4.19,4.19,0,0,0-3.75,3.87c0,1.81-.51,3.83,1.61,4.91a6.26,6.26,0,0,0,2.6.93c6.53.09,13.08-.18,19.6.17a17.12,17.12,0,0,1,9.89,3.49,17.53,17.53,0,0,1,5,6.48c1.22,2.59,2.28,5.23,1.88,8.09a22.68,22.68,0,0,1-1.76,5,22.47,22.47,0,0,0-1.29,2.66c-.51,2.34-2.93,3-4.07,4.78-.58.92-2.06,1.44-3.24,1.79a22.94,22.94,0,0,1-5.9,1.27c-6,.16-12.12.28-18.16,0a14.4,14.4,0,0,1-10.47-4.83,24.36,24.36,0,0,1-3.79-4.95c-1-2-1.29-4.25-2-6.64h10c-.21,3.48,2.13,5.1,4.53,6.65a2.49,2.49,0,0,0,1.24.14c6.35,0,12.71.08,19.07,0,2.35,0,3.73-1.77,5.11-3.45a5.65,5.65,0,0,0,1.09-4.28c-.18-2.76-3.34-6.8-6.87-6.71-5.63.14-11.27-.08-16.91.06-3.73.1-7.17-.37-10.34-2.55-2.71-1.87-4.77-3.91-5.69-7.3a14.28,14.28,0,0,1-.81-5.8c.54-3.64,1.36-7.12,4.65-9.63a17.46,17.46,0,0,1,11-4c6.65.15,13.31.06,20,0a9,9,0,0,1,6.1,1.89c.83.67,2.12.62,2.91,1.81s2.53,2.11,3.33,3.44a31.72,31.72,0,0,1,2.28,5.61A5.26,5.26,0,0,1,542.62,191.23Z"/>
          <path class="cls-1" d="M744.76,213.69h9.13a41.3,41.3,0,0,0,3.21,5.14,4.61,4.61,0,0,0,3,1.59c6.65.14,13.32.22,20,0,1.35,0,2.76-1.46,3.91-2.49a5.56,5.56,0,0,0,1.68-5.59c-.61-2.69-2.75-6.25-6.58-6.22-7,0-14,.21-21.05-.09a13.09,13.09,0,0,1-9-4.54,14.33,14.33,0,0,1,.41-20.27l.26-.25A15.59,15.59,0,0,1,761,177c6.83.19,13.67,0,20.51.07,3.3,0,5.9,1.76,8.56,3.57,2,1.4,2.94,3.5,4.13,5.36.9,1.42.93,3.4,1.41,5.36H786a11.15,11.15,0,0,0-1.57-3.07,5,5,0,0,0-3-1.49c-7.49-.12-15-.1-22.49,0-2.35,0-3.89,1.93-4.22,4.27a5.38,5.38,0,0,0,2.46,5.26c.52.4,1.51.26,2.28.26,6.3,0,12.6-.17,18.89.1,2.74.12,5.92.46,8,1.94,2.83,2,6.2,3.91,7,7.92.47,2.21,1.59,4.28,2,6.49.39,2.44-.6,4.72-1.83,6.86-.78,1.34-1.12,3-2.1,4.12-1.56,1.79-3.14,3.67-5.68,4.31a22.31,22.31,0,0,0-3.29,1.62,3.89,3.89,0,0,1-1.54.35c-6.9,0-13.82.4-20.68-.1a14.63,14.63,0,0,1-9.25-4.09,23.93,23.93,0,0,1-4.53-5.82C745.46,218.26,745.31,216,744.76,213.69Z"/>
          <path class="cls-1" d="M619.72,206.11v24h-9.54v-53a3.82,3.82,0,0,1,.66-.12c11.16,0,22.32-.24,33.47.12a11.46,11.46,0,0,1,10.17,6c.94,1.75,2.46,3.36,2.81,5.21.43,2.26.82,4.67-.44,7.09-.78,1.49-1.26,3.12-2.41,4.44-1.5,1.71-2.85,3.52-5.15,4.28-1.1.36-2.11.94-3.23,1.29-1.38,1.53.43,2.6.79,3.94a19,19,0,0,0,1.43,2.76c1.46,3.07,2.79,6.21,4.35,9.24,1.48,2.88,3.19,5.66,4.94,8.74a14.77,14.77,0,0,1-1.88.18,47,47,0,0,0-5.57.06c-2.62.36-4.06-.7-5-3.05-.73-1.91-1.72-3.72-2.59-5.58-1.15-2.48-2-5.17-3.51-7.4s-2.31-5.45-5-7a6.61,6.61,0,0,0-2.92-1C627.44,206,623.72,206.11,619.72,206.11Zm.08-9.81c.46,0,.81.07,1.16.07,7.19,0,14.39,0,21.58-.05a6.41,6.41,0,0,0,3-1c2.31-1.3,3.07-3.55,2.25-6.18-.31-1-3-2.55-4.56-2.55H619.8Z"/>
          <path class="cls-1" d="M460.71,139.48c-3.53,0-6.87.1-10.19-.08-.59,0-1.41-1.08-1.64-1.82a17.18,17.18,0,0,0-2.72-5.1c-.56-.75-.58-1.88-1-2.75-1.19-2.31-2.5-4.55-3.71-6.85a18.54,18.54,0,0,1-1.39-3.2c-.58-1.91-2.38-2.51-3.67-3.65-1.6-1.4-3.59-1.07-5.49-1.08h-8v24.37h-9.57v-53c.53,0,1.1-.09,1.68-.09h31.86c4.28,0,7.75,2.17,10.63,5.06,1.17,1.17,1.26,3.35,2.25,4.78,1.4,2,1,4.12.85,6.15-.14,1.48-1.26,2.84-1.63,4.33a8.79,8.79,0,0,1-3.2,4.49c-1.69,1.51-3.33,3.2-5.85,3.33-1.15.07-1.59,1.61-.95,2.74,1.3,2.29,2.53,4.62,3.78,6.94s2.5,4.55,3.69,6.85c.73,1.39,1.33,2.83,2,4.23S459.8,137.75,460.71,139.48Zm-37.85-33.83h22.47a5.71,5.71,0,0,0,4.81-2.37,4.73,4.73,0,0,0,.56-5,4,4,0,0,0-4-2.47c-7.6.09-15.21,0-22.82,0a8.35,8.35,0,0,0-1,.17Z"/>
          <path class="cls-1" d="M639.41,139.48c-3.68,0-7,.1-10.35-.08-.59,0-1.24-1.13-1.66-1.85-.94-1.62-1.79-3.31-2.61-5-.3-.61-.32-1.37-.62-2-1.47-3-3.06-5.92-4.46-8.94a15,15,0,0,0-5.89-6.44,2,2,0,0,0-1.06-.16H601.42v24.32h-9.6v-53c.52,0,1-.11,1.56-.11,10.73,0,21.47-.13,32.2.08a13.16,13.16,0,0,1,8.66,3.54c2,1.83,3,4,4.11,6.28s.84,4.5.73,6.72c-.06,1.26-1.16,2.43-1.48,3.72-.51,2-2,3.21-3.35,4.47-1.66,1.53-3.43,3-5.83,3.35-1.19.16-1.64,1.39-1,2.6,1.3,2.46,2.62,4.9,3.89,7.37,1.36,2.65,2.62,5.35,4,8C636.54,134.59,637.87,136.8,639.41,139.48Zm-38-33.85h23.91c1.25,0,4-2.16,4.14-3.21.56-3.62-.37-6.69-5.2-6.58-7.07.17-14.15,0-21.23,0-.52,0-1,.07-1.62.11Z"/>
          <path class="cls-1" d="M333.85,129.84v-9.78H317.57v-2.71c-.05-2.18-.13-4.36-.21-6.78h26.16V139.3a10.41,10.41,0,0,1-1.35.18c-9.12,0-18.24.1-27.35-.11-2.08-.05-4.15-1.11-6.19-1.81a38.64,38.64,0,0,1-4.85-2c-2.29-1.13-3.93-3.08-5.82-4.74-2.28-2-3.22-4.85-5.17-7-.45-.5-.32-1.48-.58-2.19A26.63,26.63,0,0,1,291,108.56c.36-2.4,1.62-4.68,2.54-7a26.51,26.51,0,0,1,2-4.41,13.43,13.43,0,0,1,3-3.42c2.32-1.75,4.49-3.68,7.27-4.89a27.44,27.44,0,0,1,5.52-1.67c10.32-2.13,20.74-.4,31.09-1a8.48,8.48,0,0,1,1.11.16v8.38c0,1.21-1,1.11-1.87,1.11H323.5c-2.4,0-4.81.13-7.2,0-4.16-.24-7.48,1.52-10.52,4.06-1.68,1.4-2.53,3.37-3.68,5.17-2.33,3.67-1.76,7.61-1.52,11.49.12,2.08,1.43,3.9,2.46,5.78a13.63,13.63,0,0,0,5,4.86,16.11,16.11,0,0,0,9.81,2.68C323.1,129.69,328.38,129.84,333.85,129.84Z"/>
          <path class="cls-1" d="M370,230.12v-53c.19-.09.29-.18.39-.18,9.54,0,19.08-.09,28.61.11,1.94,0,3.85,1.16,5.78,1.77,1,.32,2,.53,3,.93a25.84,25.84,0,0,1,6.53,4.52c2.85,2.38,4.35,5.65,6.33,8.6a7.58,7.58,0,0,1,.91,3c.46,3,1.52,6.11,1,9-.52,3.09-.65,6.36-2.29,9.36-1.3,2.38-2.34,4.9-4.29,6.82-1.55,1.53-3.52,2.65-4.92,4.28-1.83,2.15-4.71,2.08-6.74,3.68a.49.49,0,0,1-.17.06,34.63,34.63,0,0,1-5.8,1.07c-9.18.12-18.35.06-27.53.05A6.84,6.84,0,0,1,370,230.12Zm9.27-9.6c6.41,0,12.63.12,18.85-.07a15.84,15.84,0,0,0,5.69-1.54,21.36,21.36,0,0,0,3.95-2.79,12.28,12.28,0,0,0,4.44-6.47c.79-2.86.71-6,.79-9a6.5,6.5,0,0,0-.86-3.75,42.14,42.14,0,0,0-5-6.46,13.86,13.86,0,0,0-8.79-3.69c-5.68-.34-11.39-.11-17.08-.12h-1.94Z"/>
          <path class="cls-1" d="M309.15,230V177.47c14.64,11,28.6,22.14,43,33.09V177.07h9.68v52.42a30.06,30.06,0,0,1-3.16-1.82c-2.29-1.74-4.47-3.61-6.76-5.34-2.68-2-5.46-4-8.12-6-2.13-1.65-4.11-3.51-6.22-5.18-1.52-1.19-3.17-2.2-4.73-3.35-.91-.68-1.72-1.49-2.61-2.21s-2-1.53-3-2.31c-1.9-1.47-3.78-3-5.7-4.41a24,24,0,0,0-2.63-1.61V230Z"/>
          <path class="cls-1" d="M531,86.3h9.49V112c2.24.69,2.84-1.31,3.87-2.2,2.84-2.47,5.27-5.41,8.17-7.8a89.81,89.81,0,0,0,8.39-7.93c1.49-1.58,3.54-2.64,5.25-4,1.26-1,2.37-2.23,3.57-3.33.23-.21.52-.49.79-.49h12.53l.27.47L560.9,107.6,583.49,139l-.43.46c-3.53,0-7,.11-10.56-.1-.71,0-1.42-1.28-2-2.07-1.39-1.91-2.67-3.91-4-5.83-1.13-1.56-2.35-3.05-3.5-4.59-1.33-1.79-2.63-3.59-3.92-5.41s-2.78-3.83-4-5.83c-1-1.62-1.63-1.64-3-.19-1.58,1.64-3.32,3.12-5,4.66-2,1.87-4.08,3.69-6,5.62a2.57,2.57,0,0,0-.38,1.64v12H531Z"/>
          <path class="cls-1" d="M719.07,115v24.4h-9.54V86.21h1.92c10.07,0,20.14.13,30.21-.07a21.22,21.22,0,0,1,9,2c1.5.64,2.61,2.32,3.78,3.64a12.64,12.64,0,0,1,3.16,9.13,14.57,14.57,0,0,1-15.05,14H721Zm.06-9.42c.53,0,1,.12,1.45.12h22.11A5.17,5.17,0,0,0,748,100.6a5.05,5.05,0,0,0-.08-1,17.51,17.51,0,0,0-1-2.79c-4.51-1.71-9.21-.72-13.82-.88s-9.29,0-14,0Z"/>
          <path class="cls-1" d="M352.48,86.3H362V91c0,8.16-.15,16.32.14,24.47.13,3.53,2.26,6.47,4.56,9.19,2.06,2.43,5.05,3.29,7.58,4.9a4.64,4.64,0,0,0,2.12.23c3.14.16,6.35.36,9.21-1.16a24,24,0,0,0,6.39-5.13c1.91-2.08,2.38-4.66,3.57-7a6.65,6.65,0,0,0,.23-2.84V86.31h9.66v6c0,6.41.17,12.84-.08,19.24-.12,3.21-1.13,6.38-1.48,9.59s-2.95,5.46-4.35,8.23c-.84,1.67-3.26,2.47-4.37,4.07-1.43,2.07-3.81,2.27-5.57,3.62-1.19.9-3,.86-4.54,1.42a19.58,19.58,0,0,1-9.6.86,26.41,26.41,0,0,1-5.28-1.76,19.46,19.46,0,0,1-4.2-1.73,40.35,40.35,0,0,1-5.89-4.62,55.14,55.14,0,0,1-4.69-5.54,4.92,4.92,0,0,1-.47-1.51c-.56-1.78-1.27-3.53-1.66-5.35-2.31-10.62-.48-21.38-1-32.07A4.18,4.18,0,0,0,352.48,86.3Z"/>
          <path class="cls-1" d="M469.49,86.29H479v28.27a12.94,12.94,0,0,0,2.65,7.66,19.66,19.66,0,0,0,4.88,5,15.87,15.87,0,0,0,12.78,2.39,15,15,0,0,0,7.13-3.63,21.05,21.05,0,0,0,4.84-6.17,14,14,0,0,0,1.17-5.83c.12-8.51.06-17,.06-25.55V86.34H522a4.9,4.9,0,0,1,.19,1c0,9.18.07,18.36-.12,27.53a14.94,14.94,0,0,1-2.42,8.57c-1.25,1.76-1.86,4-3.23,5.61-2.55,3-5.07,6.06-9.14,7.28-2.54.77-4.88,2.49-7.44,2.84-3.07.42-6.32,1.1-9.42-.56-1.33-.72-3-.72-4.46-1.3a27.91,27.91,0,0,1-9.35-6.39c-2.19-2.16-3.31-4.92-5.24-7.18a7.28,7.28,0,0,1-1.25-3.61c-1.58-11.09-.46-22.24-.73-33.35A2.84,2.84,0,0,1,469.49,86.29Z"/>
          <path class="cls-1" d="M441.15,177v2.34c0,8.76-.18,17.52.16,26.26.11,2.91.62,6.2,3.47,8.21.22,2.49,3,2.63,4.07,4.35.29.46,1.25.45,1.85.75a16,16,0,0,0,11,1.37,17.08,17.08,0,0,0,9.59-6.19c3-3.62,3.78-7.55,3.78-11.93V177h9.5a5.82,5.82,0,0,1,.13.82c0,9,.13,18.11-.09,27.16-.05,2.32-1.22,4.62-1.86,6.94-.16.56-.2,1.16-.37,1.72a20.65,20.65,0,0,1-4.44,7.33,24.71,24.71,0,0,1-6.29,5.23c-2.58,1.51-5.4,2.2-8.2,3.12a18.6,18.6,0,0,1-7.88.69c-2.1-.21-4.13-1.17-6.19-1.78a17.68,17.68,0,0,1-2.37-.65,26.4,26.4,0,0,1-10.84-9.38c-1.53-2.17-2.28-4.55-3.42-6.8a14.34,14.34,0,0,1-1.18-6.1c-.12-9.11-.06-18.23-.06-27.35a6.37,6.37,0,0,1,.06-1Z"/>
          <path class="cls-1" d="M648,86.22h8a13,13,0,0,1,1.4.17c0,.59.09,1.17.09,1.75,0,8.93,0,17.87.09,26.81a11.44,11.44,0,0,0,2.58,7.2,26.39,26.39,0,0,0,3.31,3.84c1.56,1.35,3.47,1.93,5.2,2.87,2.48,1.35,4.93.84,7.41.9,2.15.05,3.91-1.27,5.85-1.87,2.28-.7,3.29-2.62,5-3.8,1.06-.73,1.54-2.28,2.33-3.42a11.77,11.77,0,0,0,1.78-7.08V86.33h9.67v5.2c0,6.35-.15,12.72,0,19.07a31.9,31.9,0,0,1-2.06,12c-1,2.63-2.26,5.52-4.68,7.53-1.42,1.18-2.45,2.83-3.89,4a23.59,23.59,0,0,1-4.17,2.17c-1.21.62-2.42,1.27-3.63,1.89a1.72,1.72,0,0,1-.49.19,27.49,27.49,0,0,1-11.26,1,22.46,22.46,0,0,1-4.7-1.73,42.37,42.37,0,0,1-5-2,21.37,21.37,0,0,1-7.37-6.58c-1.22-1.73-2.6-3.36-3.68-5.18a10.29,10.29,0,0,1-1.23-3.71c-1.6-11-.42-22.11-.77-33.16A7.27,7.27,0,0,1,648,86.22Z"/>
          <path class="cls-1" d="M600.63,177.12v9.47H579.12v43.52h-9.27V186.66H548.64v-9.54Z"/>
          <path class="cls-1" d="M777.91,107.23c-1.69,3-3.19,5.55-4.53,8.14-.82,1.6-1.34,3.35-2.11,5-.69,1.45-1.56,2.8-2.28,4.22-1.58,3.1-3.08,6.22-4.66,9.31-.85,1.67-1.76,3.3-2.7,4.92a1.46,1.46,0,0,1-1,.67c-3.12,0-6.23,0-9.76,0,.88-1.88,1.59-3.49,2.38-5.06.37-.74,1-1.36,1.33-2.11,1.09-2.37,2-4.85,3.18-7.17,1.47-2.81,3.32-5.43,4.77-8.25s2.47-5.76,3.85-8.57c1-2,2.39-3.89,3.45-5.9,1.18-2.25,2.13-4.61,3.28-6.87s2.42-4.42,3.61-6.65a12.57,12.57,0,0,0,.6-1.69c2-.09,1.67,1.91,2.47,2.83,1.72,2,1.72,5,3.85,6.73a.65.65,0,0,1,.1.15c1.23,2.81,2.38,5.67,3.73,8.43,1.13,2.32,2.54,4.5,3.73,6.79.76,1.44,1.29,3,2,4.43.94,1.8,2,3.51,3,5.3.72,1.34,1.32,2.74,2,4.1,1.47,2.93,3,5.84,4.43,8.76l2.28,4.51a15.16,15.16,0,0,1-1.9.23h-7.2c-1.55,0-2.14-.8-2.66-2.12a50.9,50.9,0,0,0-2.37-4.58c-.37-.71-.66-1.46-1-2.17-1.19-2.31-2.43-4.6-3.59-6.92-.82-1.63-1.51-3.33-2.32-5-.66-1.32-1.45-2.56-2.13-3.87C780.51,112.41,779.28,109.93,777.91,107.23Z"/>
          <path class="cls-1" d="M300.28,230.08h-9.45v-53h9.45Z"/>
          <path class="cls-1" d="M666.33,177h9.1v53h-9.1Z"/>
          <path class="cls-1" d="M803.11,231.21v-9.5h9.55c0,2.8.06,5.53-.07,8.26,0,.43-.89,1.16-1.4,1.18C808.58,231.27,806,231.21,803.11,231.21Z"/>
          <path class="cls-1" d="M621.2,270.8c1.53-1.58,3-3.25,4.63-4.68.45-.39,1.51-.06,2.67-.06-2.47,2.07-4.63,3.78-6.63,5.67a2.09,2.09,0,0,0,.2,2c1.46,1.8,3.1,3.45,4.67,5.15l2,2.14c-1.11.19-1.56.44-2.36-.59-1.45-1.87-3.45-3.32-5.69-5.39v4.54c0,1.37-.59,1.81-1.94,1.64V266c1.53-.31,2.06.3,1.94,1.71-.08,1,0,2,0,3Z"/>
          <path class="cls-1" d="M786.69,274.46H782V274h6.53c.37,2.75-1,4.66-3.47,6.34-2.17,1.51-4.4,1.18-6.44.76-1.61-.33-3.12-1.79-4.36-3-2.21-2.24-2.26-5.1-.94-7.69A9.73,9.73,0,0,1,777,267a11,11,0,0,1,3.89-1.12c2.65-.43,4.71.85,6.68,2.55l-1.12,1.37c-1.7-2.05-6.2-3.61-7.55-2.71-4.08,2.7-5.67,5.86-4.52,8.95,1,2.79,5.44,4.9,8.63,4.14C785,279.69,787,276.85,786.69,274.46Z"/>
          <path class="cls-1" d="M751.79,265.92V281.3l-10.24-11.49v9.31a9.6,9.6,0,0,1-.07,1.61c0,.21-.43.57-.5.53-.27-.12-.66-.39-.66-.6,0-4.66.08-9.33.14-14,0-.19.19-.39.28-.57,2.82,3.42,5.58,6.77,8.36,10.12a2.21,2.21,0,0,0,.66.39c.16-.34.47-.69.47-1,0-2.7.09-5.39,0-8.09C750.21,266.33,750.56,265.79,751.79,265.92Z"/>
          <path class="cls-1" d="M695.85,274.49h-4.74V274h6.63a39.08,39.08,0,0,1-1.09,3.84c-.53,1.31-1.84,1.77-2.93,2.55a6.2,6.2,0,0,1-4.48.89A8.05,8.05,0,0,1,682.1,277c-1.42-2.55-.19-7.15,1.94-9a8,8,0,0,1,7.26-2,17.45,17.45,0,0,1,4.7,2.27c.22.13,0,1,0,1.51a30.6,30.6,0,0,0-4.89-2.45c-1.13-.33-2.48.13-3.73.26-.14,0-.24.31-.38.32-2.32.23-2.93,2-3.8,3.79-1,2-.06,3.91.6,5.32,1.16,2.45,3.7,3.53,6.58,3.28,2.13-.19,3.79-1,4.64-3.13a17.39,17.39,0,0,1,1.17-2.11Z"/>
          <path class="cls-1" d="M557.32,266.07l7.12,14.85c-1.21.53-1.89.19-2.58-1.36a7.57,7.57,0,0,1-.74-1.48c-.42-3.06-2.7-2.51-4.72-2.51h-1.84c-.88,1.57-1.8,3.12-2.63,4.71-.54,1-1.2,1.38-2.26.67C552.54,276.27,554.05,270.86,557.32,266.07Zm2.29,8.29c-.72-1.48-1.39-2.84-2.22-4.52l-2.78,4.52Z"/>
          <path class="cls-1" d="M658,275.63h-6.27c-1,2-1.17,4.63-3.78,5.62a124.25,124.25,0,0,1,6.94-15.61l7.39,15.46C660.5,281.34,658.77,279,658,275.63Zm-3.21-6.12c-.81,1.79-1.49,3.31-2.18,4.85h4.8c-.82-1.59-1.61-3.07-2.58-4.85Z"/>
          <path class="cls-1" d="M357.3,281.14c2.39-5,4.75-9.94,7.41-15.49,2.53,5.36,4.88,10.34,7.28,15.41-1.16.39-1.66.33-2.09-.79a39.75,39.75,0,0,0-2.48-4.7h-2.14c-3.78,0-3.7.05-5.15,3.49C359.7,280.08,359.35,281.74,357.3,281.14Zm7.32-11.25-2.31,4.47h5.11C366.39,272.72,365.54,271.37,364.62,269.89Z"/>
          <path class="cls-1" d="M336.1,266c1.27-.27,1.75,0,1.72,1.22-.08,2.75,0,5.51,0,8.26,0,2.47-.92,4.6-3.11,5.58a5.57,5.57,0,0,1-4.47-.3c-3.13-1.36-2.66-3.75-2.72-6.11-.07-2.81,0-5.62,0-8.59l1.58-.15a5.59,5.59,0,0,1,.14.8c0,3.48.14,6.95,0,10.42a2.77,2.77,0,0,0,2.1,3,3.56,3.56,0,0,0,3.91-1.07,3.23,3.23,0,0,0,.91-2.61Z"/>
          <path class="cls-1" d="M294.64,268c.53-.65,1-1.74,1.61-1.86,1.56-.29,3.41-.61,4.77,0,2.31,1,4.66,2.22,5.48,5a7.27,7.27,0,0,1-.92,6.58c-.46.69-.2,2-.06,3,.07.48.62.89,1,1.41-1.95.55-2,.56-2.54-.87-.48-1.27-1.11-1.09-2-.43-1.88,1.4-6,.74-7.35-1.13l.11-.11c.67.17,1.34.36,2,.52,1.7.38,3.4.58,4.94-.47a1.07,1.07,0,0,0,.08-1c-.85-1.21-1.79-2.36-2.69-3.52l.61-.54c2.2.24,2.45,2.87,4.14,3.7,1.42-3,1.65-3.28,1.21-5.9a9.77,9.77,0,0,0-1.93-3.83c-.36-.5-1.45-.41-2-.84-1.43-1.09-2.87-.71-4.34-.24-.68.22-1.35.49-2,.74Z"/>
          <path class="cls-1" d="M597.59,277.66c.14.19.47.68.87,1.25-2.74,1.68-5.37,2.81-8.5,2.43-2.58-.31-5.57-3.12-5.91-5.74a4.85,4.85,0,0,0-.49-1.26c-.11-.26-.4-.59-.33-.78.61-1.65.88-3.69,2-4.81,1.88-1.81,4.13-3.33,7.18-2.95a7.62,7.62,0,0,1,5.88,3.44l-.2.51c-.45-.21-.9-.38-1.33-.62-1.58-.88-2.86-2.34-5-2.22-2.65.15-4.41,1.58-6,3.55-1.83,2.32-1.35,4.69.15,6.74,1.75,2.39,4.29,3.81,7.34,3C594.82,279.76,596.05,278.61,597.59,277.66Z"/>
          <path class="cls-1" d="M477.85,266.35c-3.45,4.29-5.92,8.89-4.33,14.69-.68.13-.95.2-1.23.22s-.59,0-1.33,0c1.22-5.74-.75-10.59-4.62-14.82,2-1.31,2.36.37,2.92,1.12.79,1.06,1.22,2.4,2,3.48.28.4,1.09.42,1.24.48,1.3-1.88,2.34-3.5,3.53-5,.29-.38,1-.41,1.58-.61Z"/>
          <path class="cls-1" d="M393.89,280.15l5.7.26v.6H392V265.93c1.26-.2,1.91.13,1.89,1.56-.07,3.53,0,7,0,10.58Z"/>
          <path class="cls-1" d="M445.18,281.27h-2.09V267.11l-3.09-.43.1-.64H448l.16.5-2.94.62Z"/>
          <path class="cls-1" d="M528.11,272.61c-.48.39-.93,1-1.45,1.11a36.8,36.8,0,0,1-4.33,0v7.52c-1.5-.11-2.37-.34-1.21-1.79a1.67,1.67,0,0,0,.23-1c0-2.27-.05-4.54-.06-6.8v-5.83a54.59,54.59,0,0,1,6,0c2.53.3,4.11,4.12,2.64,6.24-.28.41-1.23.34-1.88.5a3.54,3.54,0,0,1,.47-1.2,2.72,2.72,0,0,0-.18-3.38c-1.77-2-3.86-.93-6-1v5.52Z"/>
          <path class="cls-1" d="M718.47,281.5c-.33-.67-.93-1.33-.94-2q-.15-5.92,0-11.87c0-.65.67-1.29,1-1.93l.53.25v15.22Z"/>
          <path class="cls-1" d="M294.64,279.59c-.64-.28-1.68-.41-1.86-.88-.74-1.88-2.22-3.5-2-5.75s2.14-4.88,3.83-5l.09.1a22.6,22.6,0,0,1-1.54,2.82c-1,1.29-.9,4.61.1,5.93a18.82,18.82,0,0,1,1.46,2.68Z"/>
          <path class="cls-1" d="M418.8,273.5v-6.27c0-.46.41-.9.63-1.35.2.41.57.83.57,1.25q.06,6.45,0,12.9c0,.43-.37.85-.56,1.27-.23-.45-.63-.89-.65-1.34C418.77,277.81,418.8,275.66,418.8,273.5Z"/>
        </g>
      </g>
      <text class="cls-2" transform="translate(66.48 360.42) scale(0.95 1)">SINCE 1994</text>
    </g>
  </g>
</svg>
