<svg xmlns="http://www.w3.org/2000/svg" width="289.58" height="320.93" viewBox="0 0 289.58 320.93" stroke="currentColor" fill="currentColor" >
  <g id="Layer_2" data-name="Layer 2">
    <g id="Layer_1-2" data-name="Layer 1">
      <g id="Layer_2-2" data-name="Layer 2">
        <g id="Layer_1-2-2" data-name="Layer 1-2">
          <path class="cls-1" d="M277.61,78.34c-1.84-2.39-3.48-4.68-5.28-6.84-2.54-3-5.18-6-7.81-8.92a55.94,55.94,0,0,0-4.74-5c-2.59-2.42-5.31-4.71-8-7-2.13-1.83-4.28-3.64-6.46-5.4-1.07-.87-2.25-1.6-3.38-2.39-1.77-1.24-3.52-2.5-5.31-3.69-1.09-.72-2.22-1.39-3.38-2-3-1.56-5.91-3.15-8.93-4.59-2.51-1.2-5.12-2.17-7.66-3.28-3.62-1.57-7.16-3.34-10.86-4.71-2.61-1-5.44-1.35-8.14-2.11-1.92-.54-3.76-1.38-5.69-1.89a41.37,41.37,0,0,0-5.08-.83c-3.62-.45-7.38-.4-10.83-1.41-4.1-1.19-8.16-.7-12.22-.85-4.91-.18-9.84-.09-14.75.13-3.41.16-6.82.65-10.21,1.14-3.08.45-6.15,1-9.17,1.7-2.16.5-4.23,1.33-6.35,2-.34.1-.73,0-1.06.13l-8.5,2.75a24.45,24.45,0,0,0-2.53.74c-2.29,1-4.54,2.07-6.81,3.11l-.16.08c-2.72,1.17-5.5,2.23-8.17,3.53-2.46,1.2-4.78,2.69-7.2,4-1.4.75-2.93,1.27-4.27,2.11-2.15,1.34-4.2,2.82-6.25,4.29C76.19,44.7,74,46.31,71.84,48c-1.36,1.06-2.63,2.25-3.93,3.4-2.54,2.24-5.16,4.41-7.57,6.79-2.59,2.56-5,5.27-7.45,8-2.12,2.42-4.12,5-6.14,7.47-1.25,1.55-2.47,3.11-3.63,4.72-.79,1.09-1.46,2.27-2.15,3.43-1.13,1.86-2.22,3.74-3.35,5.59-.78,1.29-1.65,2.52-2.41,3.81-1,1.78-2.05,3.59-3,5.41-.3.56-.38,1.23-.63,1.82-1.47,3.44-3,6.85-4.41,10.31-.69,1.69-1.13,3.48-1.8,5.18-.55,1.4-1.38,2.7-1.89,4.11a26,26,0,0,0-.56,3.15c-.47,2-1.07,4-1.49,6.08-.69,3.44-.9,7-2,10.31-.93,2.72-.41,5.44-1,8.06-1.89,8.47-.74,17-.79,25.51a71.76,71.76,0,0,0,1.11,10.56c.45,3.19,1,6.37,1.75,9.51.43,1.89,1.21,3.7,1.8,5.55a8.66,8.66,0,0,1,.24,1.41,26.72,26.72,0,0,0,2.67,8.51,27.55,27.55,0,0,1,.94,3.18c.54,1.4,1.24,2.73,1.81,4.12.38.91.57,1.9,1,2.79,1.69,3.66,3.39,7.32,5.19,10.92,1.5,3,3.1,6,4.77,8.9a38.76,38.76,0,0,0,2.67,3.68c.82,1.11,1.7,2.2,2.48,3.35,1.22,1.8,2.27,3.72,3.57,5.46a61.52,61.52,0,0,0,4.36,5c3,3.26,6,6.55,9.2,9.67,1.92,1.89,4.17,3.45,6.2,5.24,1.48,1.31,2.75,2.87,4.29,4.12,1.85,1.51,3.86,2.82,5.82,4.2,2.25,1.57,4.48,3.16,6.78,4.66,1.28.83,2.68,1.49,4,2.22l5.57,3c1.65.9,3.28,1.85,5,2.67,2.67,1.3,5.36,2.57,8.09,3.73,1.86.78,3.8,1.36,5.72,2,2.67.87,5.32,1.78,8,2.55,2.16.61,4.37,1,6.56,1.56,1.46.34,2.9.79,4.37,1.05,1.87.34,4,.11,5.61.9,2,1,3.94.68,5.91.89a3.72,3.72,0,0,0,.67-.08V178c-.55,0-1.18-.1-1.8-.1H82.56c-2.18,0-2.37-.18-2.37-2.34V160.82h81.24v160.1h-1.72c-2.88,0-5.76-.09-8.64,0-5.08.13-10-1-15-1.67-2.95-.37-5.93-.68-8.84-1.31-3.2-.7-6.33-1.74-9.5-2.63-2.25-.62-4.52-1.17-6.74-1.89-1.67-.53-3.27-1.27-4.9-1.92l-.33-.13c-3.61-1.27-7.31-2.36-10.82-3.88-3-1.31-5.82-3.12-8.74-4.69a21,21,0,0,0-2.75-1.31,28.27,28.27,0,0,1-7.21-4.38c-.79-.59-1.76-.94-2.62-1.46-1.66-1-3.33-2-5-3.1s-3.57-2.31-5.25-3.61-3.37-2.79-5-4.26c-2.16-2-4.27-4-6.41-6-2.52-2.36-5.17-4.61-7.55-7.11-2.84-3-5.51-6.14-8.14-9.32s-5.23-6.35-7.55-9.73-4.08-7.07-6.36-10.45a56.39,56.39,0,0,1-5.66-10.34c-.92-2.26-1.92-4.49-2.93-6.72-1.14-2.49-2.49-4.89-3.44-7.45-1.27-3.43-2.2-7-3.35-10.46-.48-1.45-1.17-2.83-1.69-4.27a15.09,15.09,0,0,1-.42-1.91c-.55-2.24-1.11-4.49-1.67-6.73V194c-.4-2.61-.89-5.21-1.19-7.83-.37-3.32-.3-6.72-.91-10C-.7,166.61.16,157,.55,147.41a118,118,0,0,1,1.63-15c.62-3.64,1.72-7.21,2.59-10.81.45-1.89.75-3.83,1.33-5.69.76-2.43,1.79-4.78,2.59-7.21.75-2.23,1.33-4.52,2-6.76a18,18,0,0,1,1.09-2.51c1.6-3.17,3.26-6.31,4.83-9.5.7-1.43,1.16-3,1.91-4.4,1.15-2.14,2.48-4.19,3.7-6.3s2.48-4.52,3.85-6.71,2.83-4.25,4.33-6.31c1.15-1.57,2.39-3.06,3.63-4.55q3.42-4.09,6.89-8.15c2.21-2.5,4.35-5,6.61-7.5a48.11,48.11,0,0,1,3.68-3.15c2-1.7,3.89-3.48,5.93-5.11,2.44-2,5.22-3.56,7.39-5.77,1.63-1.65,3.6-2.66,5.35-4a67.77,67.77,0,0,1,5.92-3.81c2.85-1.78,5.67-3.62,8.58-5.31a46.9,46.9,0,0,1,4.47-2c2.65-1.27,5.24-2.66,7.93-3.85,1.76-.79,3.66-1.26,5.45-2,2.14-.86,4.2-1.92,6.35-2.76a33,33,0,0,1,3.42-.9c1.73-.47,3.44-1,5.17-1.47,3.13-.89,6.26-1.76,9.39-2.64l.17-.06c2.5-.41,5-.89,7.51-1.21,2.83-.35,5.72-.34,8.52-.85C153.46-.88,164.22.4,175,.4a81.66,81.66,0,0,1,13.76,1.72c3.52.62,7,1.73,10.43,2.58,1.91.48,3.87.79,5.75,1.34q4.63,1.35,9.19,2.89,3.78,1.31,7.46,2.86c1.64.69,3.16,1.64,4.78,2.38,2.53,1.16,5.17,2.08,7.61,3.39,2.68,1.42,5.16,3.22,7.78,4.76,2.09,1.24,4.39,2.14,6.35,3.54,2.69,1.92,5.56,3.58,7.94,6,2,2,4.53,3.34,6.72,5.12,2,1.65,3.9,3.49,5.83,5.24,2.21,2,4.46,4,6.61,6,1.41,1.35,2.72,2.81,4,4.26,1.73,1.92,3.48,3.84,5.1,5.85s3.31,4.25,4.81,6.47c1,1.46.42,2.88-.86,4-3,2.75-6,5.63-9,8.42A10.44,10.44,0,0,1,277.61,78.34Z"/>
          <path class="cls-1" d="M192.24,184.46v92c0,2.07.34,4.15.32,6.22,0,.5-.78,1.26-1.35,1.43-2.51.77-5.06,1.45-7.64,2a33.64,33.64,0,0,1-3.75.3,15.53,15.53,0,0,0-2.24.43,1.93,1.93,0,0,1-2.49-1.12,2,2,0,0,1-.11-.88V40.66a27.75,27.75,0,0,1,.53-2.89,2.75,2.75,0,0,0-.37-1.24c-.72-1.7,0-2.84,1.8-2.6,3.54.46,7.06,1.13,10.6,1.68.82.13,1.67.1,2.5.22A2.21,2.21,0,0,1,192.25,38a1.55,1.55,0,0,1,0,.22v97.18a5.65,5.65,0,0,0,.6,1.7,8.64,8.64,0,0,0,1.54-1c2.05-1.93,4.08-3.88,6.07-5.86,1.26-1.25,2.43-2.6,3.68-3.87,1.73-1.76,3.52-3.47,5.25-5.23,1.33-1.36,2.58-2.8,3.93-4.15,1.88-1.89,3.85-3.71,5.73-5.6,1.25-1.26,2.39-2.61,3.63-3.87,1.43-1.48,2.94-2.89,4.37-4.37,1.93-2,3.78-4,5.73-6,2.18-2.2,4.45-4.3,6.63-6.5,1.67-1.69,3.23-3.49,4.88-5.21,1.41-1.48,2.84-2.93,4.29-4.37,1.77-1.75,3.68-3.36,5.29-5.23,1-1.23,2-1.09,2.75-.15,2.12,2.56,4.09,5.24,6.09,7.89a32.75,32.75,0,0,1,2.57,3.64,1.93,1.93,0,0,1-.19,1.79c-3.14,3.32-6.39,6.54-9.56,9.83s-6,6.46-9.1,9.6c-3.8,3.85-7.69,7.6-11.53,11.4q-4.42,4.38-8.83,8.78c-3.24,3.25-6.49,6.5-9.69,9.78s-6.16,6.49-9.3,9.67c-2.57,2.59-5.43,4.92-7.78,7.68-1.27,1.48-2.7,2.68-4.06,4a2.5,2.5,0,0,0,0,2.4c1.66,1.75,3.6,3.22,5.36,4.88,1.28,1.21,2.42,2.56,3.64,3.83,1.64,1.71,3.29,3.43,5,5.12l5.23,5.16c1.38,1.36,2.77,2.7,4.14,4.06s2.64,2.63,3.94,4c1.66,1.7,3.29,3.44,5,5.14s3.58,3.53,5.38,5.28c2.24,2.18,4.51,4.32,6.73,6.51,2,2,3.89,4,5.86,6,2.2,2.2,4.46,4.34,6.66,6.53s4.46,4.54,6.71,6.79c2,2,3.93,4.05,6,5.93,1.05.95.78,1.69.13,2.57-1.32,1.81-2.6,3.65-4,5.39a60.37,60.37,0,0,1-5.37,6.14c-1.12,1.06-1.92-.65-2.58-1.24-1.86-1.66-3.45-3.63-5.2-5.43-2.12-2.18-4.31-4.31-6.47-6.47l-6-6.07c-2.26-2.29-4.5-4.59-6.79-6.86-2.57-2.55-5.19-5.05-7.76-7.59-1.63-1.62-3.2-3.3-4.83-4.92s-3.36-3.18-5-4.81c-2.21-2.22-4.33-4.53-6.56-6.73-1.68-1.66-3.5-3.18-5.18-4.84s-2.94-3.23-4.51-4.75A11.9,11.9,0,0,0,192.24,184.46Z"/>
        </g>
      </g>
    </g>
  </g>
</svg>
