<svg xmlns="http://www.w3.org/2000/svg" width="708.78" height="473" viewBox="0 0 708.78 473">
  <defs>
    <style>
      .cls-1 {
        fill: #d7e0e3;
      }
    </style>
  </defs>
  <g id="Layer_2" data-name="Layer 2">
    <g id="Layer_1-2" data-name="Layer 1">
      <g id="Layer_2-2" data-name="Layer 2">
        <g id="Layer_1-2-2" data-name="Layer 1-2">
          <g id="Layer_2-2-2" data-name="Layer 2-2">
            <g id="Layer_1-2-2-2" data-name="Layer 1-2-2">
              <path class="cls-1" d="M389.11,221.43c-4.83,2.15-9.76,4.1-14.43,6.52-3.92,2-5.52,1.49-6.75-3.07-5.22-19.34-13.12-37.63-24.65-54C327.88,149,309.1,130.9,285,118c-18.79-10-38.15-17.53-59.21-19.71-46.08-4.77-88.2,6.59-125.57,34-25,18.29-43.36,42.35-57.41,70-19,37.57-23.58,77.32-16.15,118,9,49.09,34.38,88.41,76.67,116,13.7,8.94,13.72,8.9,19.3-6.43,15.67-43.05,31.25-86.13,47.14-129.09,2-5.44,1.28-7.54-4.35-9.47-20.08-6.91-39.89-14.53-59.93-21.56-4.49-1.58-6.23-3.34-4-8s3.67-9.49,5.46-14.26c1.88-.48,3.44.55,5.06,1.14,27.4,10,54.76,20,82.24,29.8,4.54,1.65,5.62,3.19,3.85,8q-33.3,90.74-66.1,181.8c-1.69,4.64-3.39,5.83-8,3.81-4-1.73-7.94-3.89-12.49-4l-1.25-.46c-17.33-7.3-32.26-18.18-46-30.72A186.72,186.72,0,0,1,26,388.12c-11.69-21.38-20-43.81-23.24-68-4-29.35-4.73-58.47,4.78-87.24,5.44-16.58,10.92-33.2,18.24-49,7.07-15.32,17.24-29,28.46-41.44,16.78-18.68,36.1-34.54,58.53-46.23A204.83,204.83,0,0,1,195.17,73c24.2-1.54,47.37,2.27,70.19,10.58,22,8,43,17,61.06,32.38a199.11,199.11,0,0,1,48.95,62c4.39,8.66,8.69,17.41,11.75,26.7,1.67,5.08,3.09,10.09,2.44,15.48Z"/>
              <path class="cls-1" d="M225.19,322.49l-2.68,7.36c-12.94,35.56-25.94,71.11-38.7,106.74-1.47,4-3.44,5.93-7.65,5.37a64.56,64.56,0,0,1-7.18-1c-8.83-2.21-8.82-2.27-5.65-11l103.1-283.3c.76-2.09,1.56-4.16,2.38-6.21,3.19-8,3.33-8,11-3.3,10.46,6.37,10.46,6.37,6.27,17.86L246.32,264.33c5-.37,8.3-2.62,11.67-4.33,27.41-13.9,54.81-27.79,82-42,5.26-2.76,6.95-1.13,8.24,3.68,4.72,17.82,6.21,13.9-9.06,21.64-31.74,16.12-63.41,32.31-95.25,48.28-4.81,2.41-5.55,4.36-3.15,9.63,11,24.12,21.36,48.57,32,72.89,4.51,10.34,9,20.7,13.71,30.93,2,4.15,1.31,6.71-2.48,9.49-13.41,9.82-13.38,10-20.08-5.36q-17.88-41-35.7-82.16A44.55,44.55,0,0,0,225.19,322.49Z"/>
            </g>
          </g>
          <g id="Layer_2-3" data-name="Layer 2-3">
            <g id="Layer_1-2-3" data-name="Layer 1-2-3">
              <path class="cls-1" d="M319.72,315.41c4.83-2.15,9.75-4.11,14.43-6.52,3.92-2,5.51-1.5,6.75,3.07,5.21,19.34,13.12,37.63,24.65,54,15.4,21.88,34.18,40,58.23,52.84,18.79,10,38.15,17.53,59.21,19.71,46.08,4.77,88.19-6.59,125.56-34,25-18.3,43.36-42.35,57.42-70,19-37.58,23.57-77.32,16.15-118-9-49.09-34.38-88.41-76.67-116-13.7-8.93-13.73-8.9-19.31,6.44C570.47,150,554.9,193.14,539,236.09c-2,5.45-1.29,7.55,4.34,9.48,20.08,6.9,39.9,14.52,59.93,21.56,4.49,1.58,6.24,3.33,4,8s-3.66,9.49-5.45,14.26c-1.88.48-3.45-.56-5.06-1.15-27.41-10-54.77-20-82.24-29.79-4.54-1.65-5.62-3.19-3.86-8Q544,159.65,576.85,68.6c1.69-4.65,3.39-5.83,8-3.81,4,1.73,7.93,3.89,12.48,4l1.25.46c17.25,7.34,32.15,18.22,45.89,30.76a186.48,186.48,0,0,1,38.28,48.75c11.69,21.37,20,43.81,23.23,68,4,29.36,4.74,58.48-4.77,87.25-5.44,16.58-10.93,33.2-18.24,49-7.08,15.31-17.24,29-28.46,41.44C637.73,413.13,618.41,429,596,440.67a204.67,204.67,0,0,1-82.35,23.17c-24.21,1.54-47.37-2.27-70.2-10.58-22-8-43-17-61.05-32.38a199.11,199.11,0,0,1-48.95-62c-4.39-8.65-8.7-17.4-11.75-26.7C320,327,318.62,322,319.26,316.66Z"/>
              <path class="cls-1" d="M483.64,214.35l2.68-7.36c12.94-35.56,25.93-71.11,38.7-106.74,1.47-4,3.44-5.94,7.65-5.37a61.82,61.82,0,0,1,7.17,1c8.84,2.21,8.83,2.27,5.65,11l-103.1,283.3c-.76,2.09-1.55,4.15-2.37,6.2-3.19,8-3.33,8-11,3.31-10.45-6.37-10.45-6.37-6.27-17.86L462.54,272.5c-5,.37-8.29,2.62-11.66,4.34-27.41,13.9-54.81,27.79-82,42-5.26,2.76-6.94,1.13-8.24-3.68-4.72-17.82-6.21-13.9,9.06-21.65,31.75-16.11,63.42-32.31,95.26-48.27,4.8-2.41,5.55-4.36,3.14-9.63-11-24.12-21.35-48.57-32-72.89-4.5-10.34-9-20.7-13.71-30.93-1.94-4.15-1.31-6.71,2.48-9.49,13.42-9.82,13.39-10,20.09,5.36q17.93,41,35.7,82.09A44.6,44.6,0,0,0,483.64,214.35Z"/>
            </g>
          </g>
          <g id="Layer_2-4" data-name="Layer 2-4">
            <g id="Layer_1-2-4" data-name="Layer 1-2-4">
              <path class="cls-1" d="M449.56,93.72c-1.38-.76-2.74-1.57-4.15-2.25-1.18-.57-1.35-1-.47-2.15a50.6,50.6,0,0,0,8.56-15.5,49.19,49.19,0,0,0,2.27-23.24A47,47,0,0,0,449.91,33,52,52,0,0,0,419.25,9.37c-8.87-2.66-17.93-2.7-27.09-1.09a55.29,55.29,0,0,0-31.24,17.28c-10.19,10.9-15.09,24-14.14,38.9.3,4.84.32,4.84,5,3.42q19.73-6,39.46-11.92c1.66-.5,2-1,1.5-2.72-1.94-6-3.66-12-5.55-18.06-.43-1.34-.32-2.07,1.22-2.37s2.93-.83,4.4-1.26c.45.36.48.92.63,1.4,2.51,8.28,5,16.56,7.56,24.81.42,1.37.24,1.91-1.22,2.34Q372,68.46,344.21,77c-1.42.43-2,.24-2.35-1.22a9.59,9.59,0,0,0-1.28-3.66l-.12-.38a48.44,48.44,0,0,1-.82-16.37,55.62,55.62,0,0,1,4.86-17.79,58.53,58.53,0,0,1,12.18-17.66C363,13.68,369.88,8.29,378.5,5.4A137.3,137.3,0,0,1,393.5,1,50.66,50.66,0,0,1,408.6.28a62.42,62.42,0,0,1,21.58,5.59,60.78,60.78,0,0,1,20.31,15.37,50,50,0,0,1,10,18.52c2,6.63,3.61,13.24,3.15,20.25A58.68,58.68,0,0,1,457.5,82.7a56.46,56.46,0,0,1-4.31,7.56,10.7,10.7,0,0,1-3.28,3.35Z"/>
              <path class="cls-1" d="M395.92,73l-2.24.68C382.81,77,372,80.27,361.1,83.62c-1.23.38-2,.25-2.66-.85a21.26,21.26,0,0,1-1-1.89c-1.05-2.48-1-2.49,1.64-3.3L445.6,51.34c.64-.19,1.28-.38,1.92-.55,2.48-.67,2.52-.64,2.77,2,.34,3.61.34,3.61-3.17,4.68l-33.4,10.12a8.64,8.64,0,0,0,3.13,2c8.25,4,16.49,8,24.79,11.91,1.6.75,1.52,1.44.59,2.61-3.44,4.3-2.23,4-6.82,1.72-9.56-4.63-19.12-9.24-28.66-13.93-1.44-.7-2-.53-2.88,1C400,79.78,396,86.6,392,93.47c-1.68,2.92-3.37,5.82-5,8.78a2,2,0,0,1-2.57,1.17l-.15-.06c-4.76-1.42-4.8-1.39-2.31-5.72Q388.69,86,395.37,74.5A10.94,10.94,0,0,0,395.92,73Z"/>
            </g>
          </g>
        </g>
      </g>
    </g>
  </g>
</svg>
